<svg width="200" height="30" viewBox="0 0 247 30" fill="none" xmlns="http://www.w3.org/2000/svg">
<path d="M0.674805 1.25391H7.16895V20.7363H17.252V26H0.674805V1.25391ZM26.5488 26H20.0547V1.25391H26.5488V26ZM29.8984 1.25391H36.3926V11.3711H36.7344L44.3906 1.25391H52.0127L43.5361 12.2939L52.1836 26H44.3906L38.6826 16.6006L36.3926 19.54V26H29.8984V1.25391ZM54.0635 1.25391H71.7344V6.51758H60.5576V10.9951H70.8115V16.2588H60.5576V20.7363H71.7002V26H54.0635V1.25391ZM75.1523 1.25391H81.6465V20.7363H91.7295V26H75.1523V1.25391ZM101.026 26H94.5322V1.25391H101.026V26ZM128.165 13.627C128.165 16.293 127.641 18.583 126.593 20.4971C125.556 22.4111 124.132 23.8638 122.32 24.855C120.509 25.8462 118.469 26.3418 116.202 26.3418C113.924 26.3418 111.873 25.8462 110.05 24.855C108.238 23.8638 106.808 22.4111 105.76 20.4971C104.723 18.583 104.205 16.293 104.205 13.627C104.205 10.9609 104.723 8.6709 105.76 6.75684C106.808 4.84277 108.238 3.39014 110.05 2.39893C111.861 1.40771 113.912 0.912109 116.202 0.912109C118.469 0.912109 120.509 1.40771 122.32 2.39893C124.132 3.39014 125.556 4.84277 126.593 6.75684C127.641 8.6709 128.165 10.9609 128.165 13.627ZM121.466 13.627C121.466 11.3597 121.01 9.62223 120.099 8.41455C119.199 7.19548 117.9 6.58594 116.202 6.58594C114.493 6.58594 113.183 7.19548 112.271 8.41455C111.36 9.62223 110.904 11.3597 110.904 13.627C110.904 15.8942 111.36 17.6374 112.271 18.8564C113.183 20.0641 114.493 20.668 116.202 20.668C117.9 20.668 119.199 20.0641 120.099 18.8564C121.01 17.6374 121.466 15.8942 121.466 13.627ZM152.638 26H147.203L138.009 12.6357H137.838V26H131.344V1.25391H136.881L145.938 14.5498H146.144V1.25391H152.638V26ZM163.844 28.6367H154.293V26H163.844V28.6367ZM171.012 18.8125C170.973 18.487 170.813 18.2266 170.533 18.0312C170.26 17.8359 169.924 17.7383 169.527 17.7383C169.163 17.7383 168.86 17.8066 168.619 17.9434C168.385 18.0736 168.271 18.2526 168.277 18.4805C168.258 18.8646 168.616 19.125 169.352 19.2617L171.461 19.6523C172.548 19.8477 173.355 20.1797 173.883 20.6484C174.41 21.1172 174.677 21.7422 174.684 22.5234C174.677 23.2591 174.456 23.9036 174.02 24.457C173.583 25.0104 172.984 25.4401 172.223 25.7461C171.461 26.0456 170.595 26.1953 169.625 26.1953C168.577 26.1953 167.669 26.0488 166.9 25.7559C166.139 25.4629 165.54 25.0495 165.104 24.5156C164.674 23.9753 164.423 23.3438 164.352 22.6211H168.023C168.082 22.9596 168.255 23.2233 168.541 23.4121C168.827 23.6009 169.195 23.6953 169.645 23.6953C170.022 23.6953 170.328 23.6302 170.562 23.5C170.803 23.3633 170.927 23.181 170.934 22.9531C170.927 22.7383 170.823 22.569 170.621 22.4453C170.426 22.3151 170.113 22.2109 169.684 22.1328L167.828 21.8008C166.76 21.6055 165.956 21.2474 165.416 20.7266C164.876 20.1992 164.605 19.5221 164.605 18.6953C164.605 17.9727 164.801 17.3542 165.191 16.8398C165.582 16.3255 166.139 15.9349 166.861 15.668C167.59 15.3945 168.453 15.2578 169.449 15.2578C170.445 15.2578 171.308 15.401 172.037 15.6875C172.773 15.9674 173.342 16.3743 173.746 16.9082C174.156 17.4421 174.378 18.0768 174.41 18.8125H171.012ZM181.227 26.1953C180.107 26.1953 179.137 25.9772 178.316 25.541C177.503 25.1048 176.874 24.4766 176.432 23.6562C175.995 22.8359 175.777 21.8594 175.777 20.7266C175.777 19.6393 175.995 18.6823 176.432 17.8555C176.874 17.0286 177.499 16.3906 178.307 15.9414C179.12 15.4857 180.068 15.2578 181.148 15.2578C182.197 15.2578 183.115 15.4759 183.902 15.9121C184.69 16.3418 185.299 16.9668 185.729 17.7871C186.165 18.6009 186.383 19.5677 186.383 20.6875V21.5664H179.43V21.7031C179.43 22.2565 179.596 22.709 179.928 23.0605C180.266 23.4056 180.725 23.5781 181.305 23.5781C181.708 23.5781 182.06 23.4935 182.359 23.3242C182.659 23.1549 182.867 22.9206 182.984 22.6211H186.363C186.24 23.3503 185.953 23.985 185.504 24.5254C185.061 25.0592 184.475 25.4727 183.746 25.7656C183.017 26.0521 182.177 26.1953 181.227 26.1953ZM182.965 19.4961C182.958 19.1836 182.877 18.9036 182.721 18.6562C182.571 18.4089 182.366 18.2168 182.105 18.0801C181.845 17.9434 181.552 17.875 181.227 17.875C180.901 17.875 180.602 17.9466 180.328 18.0898C180.061 18.2266 179.846 18.4186 179.684 18.666C179.521 18.9069 179.436 19.1836 179.43 19.4961H182.965ZM193.023 26.1953C191.904 26.1953 190.93 25.9674 190.104 25.5117C189.283 25.056 188.652 24.418 188.209 23.5977C187.773 22.7708 187.555 21.8138 187.555 20.7266C187.555 19.6393 187.773 18.6855 188.209 17.8652C188.652 17.0384 189.283 16.3971 190.104 15.9414C190.93 15.4857 191.904 15.2578 193.023 15.2578C194.143 15.2578 195.113 15.4857 195.934 15.9414C196.754 16.3971 197.382 17.0384 197.818 17.8652C198.255 18.6855 198.473 19.6393 198.473 20.7266C198.473 21.8138 198.255 22.7708 197.818 23.5977C197.382 24.418 196.754 25.056 195.934 25.5117C195.113 25.9674 194.143 26.1953 193.023 26.1953ZM193.043 23.4609C193.557 23.4609 193.961 23.2135 194.254 22.7188C194.553 22.224 194.703 21.5534 194.703 20.707C194.703 19.8542 194.553 19.1836 194.254 18.6953C193.961 18.2005 193.557 17.9531 193.043 17.9531C192.509 17.9531 192.089 18.2005 191.783 18.6953C191.477 19.1836 191.324 19.8542 191.324 20.707C191.324 21.5534 191.477 22.224 191.783 22.7188C192.089 23.2135 192.509 23.4609 193.043 23.4609ZM203.766 26H200.074V11.8594H203.629V17.3867H203.746C203.98 16.7161 204.374 16.1953 204.928 15.8242C205.488 15.4466 206.155 15.2578 206.93 15.2578C207.665 15.2578 208.313 15.4271 208.873 15.7656C209.439 16.0977 209.876 16.5664 210.182 17.1719C210.488 17.7773 210.641 18.4674 210.641 19.2422V26H206.949V20.0039C206.949 19.457 206.812 19.0306 206.539 18.7246C206.266 18.4186 205.875 18.2656 205.367 18.2656C204.885 18.2656 204.498 18.4219 204.205 18.7344C203.912 19.0404 203.766 19.4635 203.766 20.0039V26ZM214.293 29.9844C213.57 29.9844 212.965 29.9648 212.477 29.9258V27.1719C212.815 27.1979 213.277 27.2109 213.863 27.2109C214.163 27.2109 214.397 27.1751 214.566 27.1035C214.742 27.0319 214.879 26.8789 214.977 26.6445L215.055 26.4492L211.324 15.3945H215.172L216.949 22.7969H217.066L218.883 15.3945H222.75L218.844 26.918C218.525 27.8815 218.007 28.6335 217.291 29.1738C216.575 29.7142 215.576 29.9844 214.293 29.9844ZM228.609 26.1953C227.49 26.1953 226.516 25.9674 225.689 25.5117C224.869 25.056 224.238 24.418 223.795 23.5977C223.359 22.7708 223.141 21.8138 223.141 20.7266C223.141 19.6393 223.359 18.6855 223.795 17.8652C224.238 17.0384 224.869 16.3971 225.689 15.9414C226.516 15.4857 227.49 15.2578 228.609 15.2578C229.729 15.2578 230.699 15.4857 231.52 15.9414C232.34 16.3971 232.968 17.0384 233.404 17.8652C233.84 18.6855 234.059 19.6393 234.059 20.7266C234.059 21.8138 233.84 22.7708 233.404 23.5977C232.968 24.418 232.34 25.056 231.52 25.5117C230.699 25.9674 229.729 26.1953 228.609 26.1953ZM228.629 23.4609C229.143 23.4609 229.547 23.2135 229.84 22.7188C230.139 22.224 230.289 21.5534 230.289 20.707C230.289 19.8542 230.139 19.1836 229.84 18.6953C229.547 18.2005 229.143 17.9531 228.629 17.9531C228.095 17.9531 227.675 18.2005 227.369 18.6953C227.063 19.1836 226.91 19.8542 226.91 20.707C226.91 21.5534 227.063 22.224 227.369 22.7188C227.675 23.2135 228.095 23.4609 228.629 23.4609ZM239.352 26H235.66V15.3945H239.156V17.3867H239.273C239.508 16.7227 239.911 16.2018 240.484 15.8242C241.057 15.4466 241.734 15.2578 242.516 15.2578C243.251 15.2578 243.899 15.4271 244.459 15.7656C245.025 16.0977 245.458 16.5664 245.758 17.1719C246.064 17.7773 246.214 18.4674 246.207 19.2422V26H242.516V20.0039C242.522 19.457 242.389 19.0306 242.115 18.7246C241.842 18.4186 241.454 18.2656 240.953 18.2656C240.458 18.2656 240.068 18.4219 239.781 18.7344C239.495 19.0404 239.352 19.4635 239.352 20.0039V26Z" fill="black"/>
</svg>
